# xmcd CD database file
#
# Track frame offsets:
#	150
#	20585
#	43257
#	64575
#	81507
#	97457
#	118712
#	144280
#	174487
#
# Disc length: 2620 seconds
#
# Revision: 0
# Processed by: cddbd v1.5PL3 Copyright (c) Steve Scherf et al.
# Submitted via: CDex 1.60beta1
#
DISCID=800a3a09
DTITLE=Craig T. Cooper - Craig T. Cooper Project
DYEAR=1989
DGENRE=Jazz
TTITLE0=25 Hours a Day
TTITLE1=I'll Help You Get There
TTITLE2=Love Dues
TTITLE3=I'm Home
TTITLE4=Nude Walkin'
TTITLE5=Don't Give up on Love
TTITLE6=Walk With Me
TTITLE7=I Hope She Likes It
TTITLE8=Just Love
EXTD=YEAR: 1989
EXTT0=
EXTT1=
EXTT2=
EXTT3=
EXTT4=
EXTT5=
EXTT6=
EXTT7=
EXTT8=
PLAYORDER=
